<svg width="20" height="20" xmlns="http://www.w3.org/2000/svg"><path fill="#FFF" d="M6.725 17.692a3.583 3.583 0 0 1-.829-.767 10.277 10.277 0 0 1-.709-.968 9.371 9.371 0 0 1-1.186-2.423c-.333-1-.495-1.959-.495-2.896 0-1.046.227-1.96.668-2.725.327-.6.813-1.102 1.4-1.454a3.73 3.73 0 0 1 1.891-.56c.234 0 .487.033.753.1.194.053.427.14.713.247.367.14.567.226.633.246.213.08.393.113.533.113.107 0 .26-.033.43-.086.097-.034.28-.094.54-.207.257-.093.46-.173.623-.233a5.56 5.56 0 0 1 .7-.173c.26-.04.517-.054.764-.034.473.034.906.134 1.293.28.68.273 1.228.7 1.637 1.306a4.08 4.08 0 0 0-1.303 1.37 3.398 3.398 0 0 0-.429 1.678c.01.722.193 1.356.56 1.906.258.4.602.742 1.022 1.023.206.14.388.237.56.3-.08.25-.168.493-.27.733a9.454 9.454 0 0 1-.833 1.54 14.39 14.39 0 0 1-.686.939c-.268.32-.527.56-.787.73a1.75 1.75 0 0 1-.967.291c-.233.01-.466-.02-.689-.085a6.677 6.677 0 0 1-.57-.215 4.624 4.624 0 0 0-.603-.226 3.11 3.11 0 0 0-1.548-.001c-.207.058-.407.13-.605.216-.28.116-.463.193-.57.226a2.979 2.979 0 0 1-.66.117c-.346 0-.668-.1-.99-.3l.01-.008zm4.567-12.3c-.453.227-.884.322-1.315.29-.066-.43 0-.872.18-1.357.16-.413.373-.786.667-1.119a3.604 3.604 0 0 1 1.086-.84c.44-.226.86-.346 1.259-.366.053.453 0 .9-.167 1.38a3.954 3.954 0 0 1-.666 1.172 3.38 3.38 0 0 1-1.057.84h.013z"/></svg>