<?xml version="1.0" encoding="UTF-8"?>
<svg width="20px" height="20px" viewBox="0 0 20 20" version="1.1" xmlns="http://www.w3.org/2000/svg" xmlns:xlink="http://www.w3.org/1999/xlink">
    <!-- Generator: Sketch 55.2 (78181) - https://sketchapp.com -->
    <title>website</title>
    <desc>Created with Sketch.</desc>
    <g id="website" stroke="none" stroke-width="1" fill="none" fill-rule="evenodd">
        <g id="ic-desktop-windows-24px">
            <polygon id="Path" points="0 0 20 0 20 20 0 20"></polygon>
            <path d="M17.5,1.66666667 L2.5,1.66666667 C1.58333333,1.66666667 0.833333333,2.41666667 0.833333333,3.33333333 L0.833333333,13.3333333 C0.833333333,14.25 1.58333333,15 2.5,15 L8.33333333,15 L8.33333333,16.6666667 L6.66666667,16.6666667 L6.66666667,18.3333333 L13.3333333,18.3333333 L13.3333333,16.6666667 L11.6666667,16.6666667 L11.6666667,15 L17.5,15 C18.4166667,15 19.1666667,14.25 19.1666667,13.3333333 L19.1666667,3.33333333 C19.1666667,2.41666667 18.4166667,1.66666667 17.5,1.66666667 Z M17.5,13.3333333 L2.5,13.3333333 L2.5,3.33333333 L17.5,3.33333333 L17.5,13.3333333 Z" id="Shape" fill="#FFFFFF" fill-rule="nonzero"></path>
        </g>
    </g>
</svg>