<?xml version="1.0" encoding="UTF-8"?>
<svg width="20px" height="20px" viewBox="0 0 20 20" version="1.1" xmlns="http://www.w3.org/2000/svg" xmlns:xlink="http://www.w3.org/1999/xlink">
    <!-- Generator: Sketch 55.2 (78181) - https://sketchapp.com -->
    <title>apple-music</title>
    <desc>Created with Sketch.</desc>
    <g id="apple-music" stroke="none" stroke-width="1" fill="none" fill-rule="evenodd">
        <path d="M17.9969813,6.0823402 C17.9969813,5.59029919 17.9536444,5.10225852 17.836968,4.62221852 C17.625617,3.7488124 17.128909,3.08209017 16.3835135,2.59338278 C16.000815,2.34402867 15.58078,2.18934911 15.1320759,2.10867572 C14.7873805,2.04667056 14.4400182,2.01866822 14.0893223,2.00866739 C14.0626535,2.00666722 14.0339844,2.00200017 14.0066488,2 L5.98998074,2 C5.88863896,2.00666722 5.7879639,2.01133428 5.68662212,2.01733478 C5.18858062,2.04600383 4.69320601,2.09934161 4.22450028,2.28469039 C3.33375938,2.63805317 2.69103916,3.25277106 2.3143411,4.13817818 C2.18633043,4.43686974 2.11965821,4.75489624 2.07232093,5.07692308 C2.03498449,5.33827819 2.01364938,5.60030003 2.00564871,5.8636553 C2.00564871,5.88499042 2.00098165,5.90499208 1.99898149,5.92566047 L1.99898149,14.0750063 C2.00564871,14.1683474 2.01031576,14.2636886 2.01698299,14.3576965 C2.0503191,14.9010751 2.11965821,15.4404534 2.34834393,15.9398283 C2.78171338,16.8865739 3.50710716,17.5086257 4.50452361,17.807984 C4.78454695,17.8926577 5.07523784,17.9326611 5.36659545,17.9599967 C5.73662629,17.9953329 6.10665713,18 6.47802141,18 L13.8319676,18 C14.1819967,18 14.5306925,17.9773314 14.8787215,17.9333278 C15.4274339,17.8626552 15.9434769,17.699975 16.4095157,17.3932828 C16.9695624,17.0245854 17.3909308,16.5352113 17.6629535,15.9211601 C17.7869638,15.6411368 17.8583031,15.3411118 17.9096407,15.0384199 C17.9849803,14.5883824 18.0016484,14.1330111 18.0010006,13.6783065 C17.9996482,11.1447621 18.0010006,8.61455121 17.9989815,6.0823402 L17.9969813,6.0823402 Z M13.7146245,8.74256188 L13.7146245,12.5508792 C13.7146245,12.8289024 13.6759546,13.1022585 13.5519442,13.3549462 C13.3585948,13.7483124 13.0452353,13.996333 12.6265338,14.1150096 C12.393181,14.1816818 12.1558279,14.219685 11.913141,14.2303525 C11.2797549,14.260355 10.7310425,13.8303192 10.6176997,13.2062672 C10.5230252,12.6908909 10.7690457,12.1235103 11.3097574,11.8581548 C11.5251087,11.7514793 11.7564613,11.6914743 11.9884806,11.6421368 C12.2405016,11.5874656 12.4938561,11.5401283 12.7445436,11.4821235 C12.9272255,11.44012 13.0492357,11.3287774 13.084572,11.1380948 C13.0939061,11.0960913 13.0979064,11.051421 13.0979064,11.0094175 C13.0979064,9.79931661 13.0979064,8.58921577 13.096573,7.38044837 C13.096573,7.33911159 13.0899057,7.29710809 13.0792382,7.25710476 C13.0525693,7.15709642 12.9792298,7.09509126 12.8765546,7.10109176 C12.7698791,7.10775898 12.6645369,7.12442704 12.5598616,7.14509542 C12.0531527,7.24510376 11.5464438,7.34711226 11.0397349,7.44912076 L9.48893898,7.76248021 L8.57286264,7.94782899 C8.56219509,7.94982915 8.55152753,7.95449621 8.54085998,7.95649637 C8.35617792,8.00783399 8.2895057,8.09184099 8.28083831,8.28319027 C8.27950486,8.3111926 8.28083831,8.34052838 8.28083831,8.36986416 C8.27950486,10.1046754 8.28083831,11.8394866 8.27883814,13.5736311 C8.27883814,13.8536545 8.2475022,14.1310109 8.13549286,14.3916993 C7.95014408,14.8184015 7.62211675,15.0850904 7.17941319,15.2137678 C6.94606041,15.28044 6.70604041,15.3204434 6.4626868,15.328444 C5.82263346,15.352446 5.29258929,14.9284107 5.18258012,14.2990249 C5.08923901,13.7576465 5.33592623,13.175598 5.95197757,12.9155763 C6.1899974,12.815568 6.43868479,12.7608967 6.6907058,12.7088924 C6.88205508,12.6688891 7.07407108,12.6315526 7.26408691,12.5908826 C7.51944152,12.5355446 7.65278597,12.3755313 7.66412025,12.1148429 L7.66412025,12.0148346 C7.66412025,10.0413368 7.66412025,8.06650554 7.66545369,6.09300775 C7.66545369,6.01100092 7.67412108,5.92632719 7.69345603,5.84632053 C7.74012658,5.65630469 7.87547119,5.54762897 8.05748636,5.50095841 C8.22750053,5.45695475 8.40084831,5.42628552 8.57352937,5.39094925 C9.06223676,5.29094091 9.55094415,5.19359947 10.0403183,5.09492458 L11.5537777,4.78823235 C12.0004816,4.69889157 12.4471855,4.60821735 12.8938894,4.5195433 C13.0405683,4.49087424 13.1892473,4.46087174 13.336593,4.44887074 C13.5432768,4.43220268 13.6852887,4.56221352 13.7059571,4.77023085 C13.7112908,4.81890158 13.7139577,4.86890574 13.7139577,4.91890991 C13.7152912,6.19234936 13.7152912,7.46712226 13.7139577,8.74056171 L13.7146245,8.74256188 Z" id="Shape" fill="#FFFFFF" fill-rule="nonzero"></path>
    </g>
</svg>