<?xml version="1.0" encoding="UTF-8"?>
<svg width="20px" height="20px" viewBox="0 0 20 20" version="1.1" xmlns="http://www.w3.org/2000/svg" xmlns:xlink="http://www.w3.org/1999/xlink">
    <!-- Generator: Sketch 55.2 (78181) - https://sketchapp.com -->
    <title>apple-music</title>
    <desc>Created with Sketch.</desc>
    <g id="apple-music" stroke="none" stroke-width="1" fill="none" fill-rule="evenodd">
        <path d="M6.72524361,17.6915133 C6.41009411,17.4809694 6.13025735,17.2231198 5.89639377,16.9252936 C5.64120929,16.6168069 5.4046806,16.2923295 5.18747397,15.9565254 C4.67710502,15.210294 4.2780045,14.3941034 4.00149913,13.5339385 C3.66836012,12.533189 3.50645457,11.5750812 3.50645457,10.6376281 C3.50645457,9.59157158 3.73298909,8.67877072 4.17406513,7.91255101 C4.50054135,7.31290081 4.98692429,6.81119347 5.57324894,6.45873241 C6.13958524,6.10560506 6.79920047,5.91238444 7.46547847,5.89905888 C7.69867577,5.89905888 7.95186141,5.93237278 8.21837262,5.99900058 C8.41159324,6.05230282 8.64479054,6.13891896 8.93129008,6.24552344 C9.29774298,6.38544183 9.49762638,6.47205797 9.56425419,6.49204631 C9.77746315,6.57199967 9.95735821,6.60531357 10.0972766,6.60531357 C10.2038811,6.60531357 10.357125,6.57199967 10.5270259,6.51869743 C10.6236362,6.48538353 10.8068627,6.42541851 11.0667111,6.31215125 C11.3238944,6.21887232 11.5277755,6.13891896 11.689681,6.07895394 C11.9362039,6.00566336 12.1747314,5.93903556 12.3892729,5.90572166 C12.6491213,5.86574498 12.9069709,5.85241942 13.1541601,5.87240776 C13.6272175,5.90572166 14.0602982,6.00566336 14.4467394,6.15224452 C15.126343,6.42541851 15.6746898,6.85183643 16.0837845,7.45814941 C15.9105522,7.56475389 15.7506455,7.6886816 15.6007329,7.82460232 C15.2762555,8.11110186 15.0010827,8.45090364 14.781211,8.82735071 C14.4947114,9.34038478 14.3481303,9.92004664 14.3521279,10.5063713 C14.3621221,11.2279504 14.5453485,11.862247 14.9118014,12.4119264 C15.169651,12.8116932 15.5141168,13.1541601 15.9338719,13.4353294 C16.1404181,13.5752478 16.3216457,13.6718581 16.4935454,13.7351545 C16.4135921,13.9850087 16.3256434,14.2282002 16.2237028,14.4680603 C15.9925044,15.0057466 15.7173316,15.5207795 15.3908553,16.0071625 C15.1030232,16.4269176 14.8764887,16.7400683 14.704589,16.9466145 C14.4367452,17.2664279 14.1782294,17.506288 13.9183809,17.6775214 C13.6318814,17.8674107 13.295411,17.9680187 12.9509453,17.9680187 C12.717748,17.9780128 12.4845507,17.9480303 12.2620138,17.8834013 C12.0687932,17.8201049 11.8782377,17.7488132 11.6916799,17.6681936 C11.4964604,17.5789123 11.2945782,17.5029566 11.0886983,17.441659 C10.8355126,17.3750312 10.5756642,17.3430499 10.3131507,17.3437162 C10.0466395,17.3437162 9.78679104,17.3770301 9.54026818,17.4403265 C9.333722,17.4989589 9.13383859,17.570917 8.93595403,17.6568668 C8.65611726,17.7734655 8.47289081,17.8500874 8.36628633,17.8834013 C8.15041226,17.947364 7.92920796,17.9860082 7.70667111,18 C7.36020655,18 7.03772799,17.9000583 6.71658199,17.7001749 L6.72524361,17.6915133 Z M11.2919131,5.39202132 C10.838844,5.61855584 10.4084284,5.71449988 9.97734655,5.68251853 C9.91071875,5.25210294 9.97734655,4.80969434 10.1572416,4.32531024 C10.3171483,3.91221787 10.5303573,3.53910219 10.8235196,3.20596319 C11.1300075,2.85949863 11.4964604,2.57299908 11.9095528,2.3664529 C12.3492962,2.13991838 12.7690514,2.01998834 13.1688182,2 C13.2221204,2.45306904 13.1688182,2.89947531 13.0022487,3.37919547 C12.8503373,3.80561339 12.6238028,4.19871741 12.3359707,4.55184476 C12.0461398,4.89830932 11.6863496,5.18480886 11.2792538,5.39135504 L11.2919131,5.39202132 Z" id="Shape" fill="#FFFFFF" fill-rule="nonzero"></path>
    </g>
</svg>