<?xml version="1.0" encoding="UTF-8"?>
<svg width="20px" height="20px" viewBox="0 0 20 20" version="1.1" xmlns="http://www.w3.org/2000/svg" xmlns:xlink="http://www.w3.org/1999/xlink">
    <!-- Generator: Sketch 58 (84663) - https://sketch.com -->
    <title>business</title>
    <desc>Created with Sketch.</desc>
    <g id="business" stroke="none" stroke-width="1" fill="none" fill-rule="evenodd" opacity="0.25">
        <g id="ic_business_center_24px">
            <path d="M0,0 L20,0 L20,20 L0,20 L0,0 Z M8.33333333,4.16666667 L11.6666667,4.16666667 L11.6666667,5.83333333 L8.33333333,5.83333333 L8.33333333,4.16666667 Z M8.33333333,4.16666667 L11.6666667,4.16666667 L11.6666667,5.83333333 L8.33333333,5.83333333 L8.33333333,4.16666667 Z" id="Shape"></path>
            <path d="M8.33333333,13.3333333 L8.33333333,12.5 L2.50833333,12.5 L2.5,15.8333333 C2.5,16.7583333 3.24166667,17.5 4.16666667,17.5 L15.8333333,17.5 C16.7583333,17.5 17.5,16.7583333 17.5,15.8333333 L17.5,12.5 L11.6666667,12.5 L11.6666667,13.3333333 L8.33333333,13.3333333 Z M16.6666667,5.83333333 L13.325,5.83333333 L13.325,4.16666667 L11.6583333,2.5 L8.325,2.5 L6.65833333,4.16666667 L6.65833333,5.83333333 L3.33333333,5.83333333 C2.41666667,5.83333333 1.66666667,6.58333333 1.66666667,7.5 L1.66666667,10 C1.66666667,10.925 2.40833333,11.6666667 3.33333333,11.6666667 L8.33333333,11.6666667 L8.33333333,10 L11.6666667,10 L11.6666667,11.6666667 L16.6666667,11.6666667 C17.5833333,11.6666667 18.3333333,10.9166667 18.3333333,10 L18.3333333,7.5 C18.3333333,6.58333333 17.5833333,5.83333333 16.6666667,5.83333333 Z M11.6666667,5.83333333 L8.33333333,5.83333333 L8.33333333,4.16666667 L11.6666667,4.16666667 L11.6666667,5.83333333 Z" id="Shape" fill="#000000" fill-rule="nonzero"></path>
        </g>
    </g>
</svg>