<?xml version="1.0" encoding="UTF-8"?>
<svg width="20px" height="20px" viewBox="0 0 20 20" version="1.1" xmlns="http://www.w3.org/2000/svg" xmlns:xlink="http://www.w3.org/1999/xlink">
    <!-- Generator: Sketch 55.2 (78181) - https://sketchapp.com -->
    <title>community</title>
    <desc>Created with Sketch.</desc>
    <g id="community" stroke="none" stroke-width="1" fill="none" fill-rule="evenodd">
        <g id="ic-local-movies-24px">
            <path d="M13.1666667,9.16666667 C14.55,9.16666667 15.6583333,8.05 15.6583333,6.66666667 C15.6583333,5.28333333 14.55,4.16666667 13.1666667,4.16666667 C11.7833333,4.16666667 10.6666667,5.28333333 10.6666667,6.66666667 C10.6666667,8.05 11.7833333,9.16666667 13.1666667,9.16666667 Z M6.5,9.16666667 C7.88333333,9.16666667 8.99166667,8.05 8.99166667,6.66666667 C8.99166667,5.28333333 7.88333333,4.16666667 6.5,4.16666667 C5.11666667,4.16666667 4,5.28333333 4,6.66666667 C4,8.05 5.11666667,9.16666667 6.5,9.16666667 Z M6.5,10.8333333 C4.55833333,10.8333333 0.666666667,11.8083333 0.666666667,13.75 L0.666666667,15.8333333 L12.3333333,15.8333333 L12.3333333,13.75 C12.3333333,11.8083333 8.44166667,10.8333333 6.5,10.8333333 Z M13.1666667,10.8333333 C12.925,10.8333333 12.65,10.85 12.3583333,10.875 C13.325,11.575 14,12.5166667 14,13.75 L14,15.8333333 L19,15.8333333 L19,13.75 C19,11.8083333 15.1083333,10.8333333 13.1666667,10.8333333 Z" id="Shape" fill-opacity="0.25" fill="#000000" fill-rule="nonzero"></path>
            <polygon id="Path" points="0 0 20 0 20 20 0 20"></polygon>
        </g>
    </g>
</svg>