<?xml version="1.0" encoding="UTF-8"?>
<svg width="20px" height="20px" viewBox="0 0 20 20" version="1.1" xmlns="http://www.w3.org/2000/svg" xmlns:xlink="http://www.w3.org/1999/xlink">
    <!-- Generator: Sketch 55.2 (78181) - https://sketchapp.com -->
    <title>design</title>
    <desc>Created with Sketch.</desc>
    <g id="design" stroke="none" stroke-width="1" fill="none" fill-rule="evenodd">
        <g id="ic-tonality-24px">
            <polygon id="Path" points="0 0 20 0 20 20 0 20"></polygon>
            <path d="M10,1.66666667 C5.4,1.66666667 1.66666667,5.4 1.66666667,10 C1.66666667,14.6 5.4,18.3333333 10,18.3333333 C14.6,18.3333333 18.3333333,14.6 18.3333333,10 C18.3333333,5.4 14.6,1.66666667 10,1.66666667 Z M9.16666667,16.6083333 C5.88333333,16.2 3.33333333,13.4 3.33333333,10 C3.33333333,6.6 5.875,3.8 9.16666667,3.39166667 L9.16666667,16.6083333 Z M10.8333333,3.39166667 C11.6916667,3.5 12.5,3.76666667 13.225,4.16666667 L10.8333333,4.16666667 L10.8333333,3.39166667 Z M10.8333333,5.83333333 L15.2,5.83333333 C15.4083333,6.09166667 15.6,6.375 15.7666667,6.66666667 L10.8333333,6.66666667 L10.8333333,5.83333333 Z M10.8333333,8.33333333 L16.45,8.33333333 C16.5166667,8.60833333 16.575,8.88333333 16.6083333,9.16666667 L10.8333333,9.16666667 L10.8333333,8.33333333 Z M10.8333333,16.6083333 L10.8333333,15.8333333 L13.225,15.8333333 C12.5,16.2333333 11.6916667,16.5 10.8333333,16.6083333 Z M15.2,14.1666667 L10.8333333,14.1666667 L10.8333333,13.3333333 L15.7666667,13.3333333 C15.6,13.625 15.4083333,13.9083333 15.2,14.1666667 L15.2,14.1666667 Z M16.45,11.6666667 L10.8333333,11.6666667 L10.8333333,10.8333333 L16.6083333,10.8333333 C16.575,11.1166667 16.5166667,11.3916667 16.45,11.6666667 Z" id="Shape" fill-opacity="0.25" fill="#000000" fill-rule="nonzero"></path>
        </g>
    </g>
</svg>