<?xml version="1.0" encoding="UTF-8"?>
<svg width="20px" height="20px" viewBox="0 0 20 20" version="1.1" xmlns="http://www.w3.org/2000/svg" xmlns:xlink="http://www.w3.org/1999/xlink">
    <!-- Generator: Sketch 55.2 (78181) - https://sketchapp.com -->
    <title>film</title>
    <desc>Created with Sketch.</desc>
    <g id="film" stroke="none" stroke-width="1" fill="none" fill-rule="evenodd">
        <g id="ic-local-movies-24px">
            <path d="M15,2.5 L15,4.16666667 L13.3333333,4.16666667 L13.3333333,2.5 L6.66666667,2.5 L6.66666667,4.16666667 L5,4.16666667 L5,2.5 L3.33333333,2.5 L3.33333333,17.5 L5,17.5 L5,15.8333333 L6.66666667,15.8333333 L6.66666667,17.5 L13.3333333,17.5 L13.3333333,15.8333333 L15,15.8333333 L15,17.5 L16.6666667,17.5 L16.6666667,2.5 L15,2.5 Z M6.66666667,14.1666667 L5,14.1666667 L5,12.5 L6.66666667,12.5 L6.66666667,14.1666667 Z M6.66666667,10.8333333 L5,10.8333333 L5,9.16666667 L6.66666667,9.16666667 L6.66666667,10.8333333 Z M6.66666667,7.5 L5,7.5 L5,5.83333333 L6.66666667,5.83333333 L6.66666667,7.5 Z M15,14.1666667 L13.3333333,14.1666667 L13.3333333,12.5 L15,12.5 L15,14.1666667 Z M15,10.8333333 L13.3333333,10.8333333 L13.3333333,9.16666667 L15,9.16666667 L15,10.8333333 Z M15,7.5 L13.3333333,7.5 L13.3333333,5.83333333 L15,5.83333333 L15,7.5 Z" id="Shape" fill-opacity="0.25" fill="#000000" fill-rule="nonzero"></path>
            <polygon id="Path" points="0 0 20 0 20 20 0 20"></polygon>
        </g>
    </g>
</svg>