<?xml version="1.0" encoding="UTF-8"?>
<svg width="20px" height="20px" viewBox="0 0 20 20" version="1.1" xmlns="http://www.w3.org/2000/svg" xmlns:xlink="http://www.w3.org/1999/xlink">
    <!-- Generator: Sketch 55.2 (78181) - https://sketchapp.com -->
    <title>food-drink</title>
    <desc>Created with Sketch.</desc>
    <g id="food-drink" stroke="none" stroke-width="1" fill="none" fill-rule="evenodd">
        <g id="ic-local-movies-24px">
            <path d="M6.49961525,10.375 L8.85794859,8.01666667 L3.00794859,2.175 C1.70794859,3.475 1.70794859,5.58333333 3.00794859,6.89166667 L6.49961525,10.375 L6.49961525,10.375 Z M12.1496153,8.86666667 C13.4246153,9.45833333 15.2162819,9.04166667 16.5412819,7.71666667 C18.1329486,6.125 18.4412819,3.84166667 17.2162819,2.61666667 C15.9996153,1.4 13.7162819,1.7 12.1162819,3.29166667 C10.7912819,4.61666667 10.3746153,6.40833333 10.9662819,7.68333333 L2.83294859,15.8166667 L4.00794859,16.9916667 L9.74961525,11.2666667 L15.4829486,17 L16.6579486,15.825 L10.9246153,10.0916667 L12.1496153,8.86666667 Z" id="Shape" fill-opacity="0.25" fill="#000000" fill-rule="nonzero"></path>
            <polygon id="Path" points="0 0 20 0 20 20 0 20"></polygon>
        </g>
    </g>
</svg>