<?xml version="1.0" encoding="UTF-8"?>
<svg width="32px" height="32px" viewBox="0 0 32 32" version="1.1" xmlns="http://www.w3.org/2000/svg" xmlns:xlink="http://www.w3.org/1999/xlink">
    <!-- Generator: Sketch 56.2 (81672) - https://sketch.com -->
    <title>instagram</title>
    <desc>Created with Sketch.</desc>
    <g id="instagram" stroke="none" stroke-width="1" fill="none" fill-rule="evenodd">
        <g fill="#E1306C" fill-rule="nonzero" id="Shape">
            <path d="M16,0 C11.6533333,0 11.1106667,0.02 9.404,0.096 C7.7,0.176 6.54,0.444 5.52,0.84 C4.468,1.248 3.57466667,1.796 2.68533333,2.68533333 C1.796,3.57466667 1.24666667,4.46666667 0.84,5.52 C0.444,6.54 0.174666667,7.7 0.096,9.404 C0.016,11.1106667 0,11.6533333 0,16 C0,20.3466667 0.02,20.8893333 0.096,22.596 C0.176,24.2986667 0.444,25.46 0.84,26.48 C1.248,27.5306667 1.796,28.4253333 2.68533333,29.3146667 C3.57466667,30.2026667 4.46666667,30.7533333 5.52,31.16 C6.54133333,31.5546667 7.70133333,31.8253333 9.404,31.904 C11.1106667,31.984 11.6533333,32 16,32 C20.3466667,32 20.8893333,31.98 22.596,31.904 C24.2986667,31.824 25.46,31.5546667 26.48,31.16 C27.5306667,30.752 28.4253333,30.2026667 29.3146667,29.3146667 C30.2026667,28.4253333 30.7533333,27.5346667 31.16,26.48 C31.5546667,25.46 31.8253333,24.2986667 31.904,22.596 C31.984,20.8893333 32,20.3466667 32,16 C32,11.6533333 31.98,11.1106667 31.904,9.404 C31.824,7.70133333 31.5546667,6.53866667 31.16,5.52 C30.752,4.468 30.2026667,3.57466667 29.3146667,2.68533333 C28.4253333,1.796 27.5346667,1.24666667 26.48,0.84 C25.46,0.444 24.2986667,0.174666667 22.596,0.096 C20.8893333,0.016 20.3466667,0 16,0 Z M16,2.88 C20.2706667,2.88 20.78,2.90133333 22.4666667,2.97466667 C24.0266667,3.048 24.8733333,3.30666667 25.436,3.528 C26.1853333,3.81733333 26.716,4.164 27.2786667,4.72266667 C27.8373333,5.28266667 28.184,5.81466667 28.4733333,6.564 C28.692,7.12666667 28.9533333,7.97333333 29.024,9.53333333 C29.1,11.2213333 29.1173333,11.728 29.1173333,16 C29.1173333,20.272 29.0973333,20.78 29.0186667,22.4666667 C28.9373333,24.0266667 28.6773333,24.8733333 28.4573333,25.436 C28.1586667,26.1853333 27.8186667,26.716 27.2586667,27.2786667 C26.7,27.8373333 26.16,28.184 25.4186667,28.4733333 C24.8586667,28.692 23.9986667,28.9533333 22.4386667,29.024 C20.74,29.1 20.24,29.1173333 15.96,29.1173333 C11.6786667,29.1173333 11.1786667,29.0973333 9.48133333,29.0186667 C7.92,28.9373333 7.06,28.6773333 6.5,28.4573333 C5.74133333,28.1586667 5.22,27.8186667 4.66133333,27.2586667 C4.1,26.7 3.74133333,26.16 3.46133333,25.4186667 C3.24133333,24.8586667 2.98266667,23.9986667 2.90133333,22.4386667 C2.84133333,20.7586667 2.82,20.24 2.82,15.98 C2.82,11.7186667 2.84133333,11.1986667 2.90133333,9.49866667 C2.98266667,7.93866667 3.24133333,7.08 3.46133333,6.52 C3.74133333,5.76 4.1,5.24 4.66133333,4.67866667 C5.22,4.12 5.74133333,3.76 6.5,3.48133333 C7.06,3.26 7.90133333,3 9.46133333,2.92 C11.1613333,2.86 11.6613333,2.84 15.94,2.84 L16,2.88 L16,2.88 Z M16,7.784 C11.46,7.784 7.784,11.464 7.784,16 C7.784,20.54 11.464,24.216 16,24.216 C20.54,24.216 24.216,20.536 24.216,16 C24.216,11.46 20.536,7.784 16,7.784 Z M16,21.3333333 C13.0533333,21.3333333 10.6666667,18.9466667 10.6666667,16 C10.6666667,13.0533333 13.0533333,10.6666667 16,10.6666667 C18.9466667,10.6666667 21.3333333,13.0533333 21.3333333,16 C21.3333333,18.9466667 18.9466667,21.3333333 16,21.3333333 Z M26.4613333,7.46 C26.4613333,8.52 25.6,9.38 24.5413333,9.38 C23.4813333,9.38 22.6213333,8.51866667 22.6213333,7.46 C22.6213333,6.40133333 23.4826667,5.54133179 24.5413333,5.54133179 C25.5986667,5.54 26.4613333,6.40133333 26.4613333,7.46 Z"></path>
        </g>
    </g>
</svg>