<?xml version="1.0" encoding="UTF-8"?>
<svg width="20px" height="20px" viewBox="0 0 20 20" version="1.1" xmlns="http://www.w3.org/2000/svg" xmlns:xlink="http://www.w3.org/1999/xlink">
    <!-- Generator: Sketch 55.2 (78181) - https://sketchapp.com -->
    <title>instagram</title>
    <desc>Created with Sketch.</desc>
    <g id="instagram" stroke="none" stroke-width="1" fill="none" fill-rule="evenodd">
        <path d="M10,2 C7.82666667,2 7.55533333,2.01 6.702,2.048 C5.85,2.088 5.27,2.222 4.76,2.42 C4.234,2.624 3.78733333,2.898 3.34266667,3.34266667 C2.898,3.78733333 2.62333333,4.23333333 2.42,4.76 C2.222,5.27 2.08733333,5.85 2.048,6.702 C2.008,7.55533333 2,7.82666667 2,10 C2,12.1733333 2.01,12.4446667 2.048,13.298 C2.088,14.1493333 2.222,14.73 2.42,15.24 C2.624,15.7653333 2.898,16.2126667 3.34266667,16.6573333 C3.78733333,17.1013333 4.23333333,17.3766667 4.76,17.58 C5.27066667,17.7773333 5.85066667,17.9126667 6.702,17.952 C7.55533333,17.992 7.82666667,18 10,18 C12.1733333,18 12.4446667,17.99 13.298,17.952 C14.1493333,17.912 14.73,17.7773333 15.24,17.58 C15.7653333,17.376 16.2126667,17.1013333 16.6573333,16.6573333 C17.1013333,16.2126667 17.3766667,15.7673333 17.58,15.24 C17.7773333,14.73 17.9126667,14.1493333 17.952,13.298 C17.992,12.4446667 18,12.1733333 18,10 C18,7.82666667 17.99,7.55533333 17.952,6.702 C17.912,5.85066667 17.7773333,5.26933333 17.58,4.76 C17.376,4.234 17.1013333,3.78733333 16.6573333,3.34266667 C16.2126667,2.898 15.7673333,2.62333333 15.24,2.42 C14.73,2.222 14.1493333,2.08733333 13.298,2.048 C12.4446667,2.008 12.1733333,2 10,2 Z M10,3.44 C12.1353333,3.44 12.39,3.45066667 13.2333333,3.48733333 C14.0133333,3.524 14.4366667,3.65333333 14.718,3.764 C15.0926667,3.90866667 15.358,4.082 15.6393333,4.36133333 C15.9186667,4.64133333 16.092,4.90733333 16.2366667,5.282 C16.346,5.56333333 16.4766667,5.98666667 16.512,6.76666667 C16.55,7.61066667 16.5586667,7.864 16.5586667,10 C16.5586667,12.136 16.5486667,12.39 16.5093333,13.2333333 C16.4686667,14.0133333 16.3386667,14.4366667 16.2286667,14.718 C16.0793333,15.0926667 15.9093333,15.358 15.6293333,15.6393333 C15.35,15.9186667 15.08,16.092 14.7093333,16.2366667 C14.4293333,16.346 13.9993333,16.4766667 13.2193333,16.512 C12.37,16.55 12.12,16.5586667 9.98,16.5586667 C7.83933333,16.5586667 7.58933333,16.5486667 6.74066667,16.5093333 C5.96,16.4686667 5.53,16.3386667 5.25,16.2286667 C4.87066667,16.0793333 4.61,15.9093333 4.33066667,15.6293333 C4.05,15.35 3.87066667,15.08 3.73066667,14.7093333 C3.62066667,14.4293333 3.49133333,13.9993333 3.45066667,13.2193333 C3.42066667,12.3793333 3.41,12.12 3.41,9.99 C3.41,7.85933333 3.42066667,7.59933333 3.45066667,6.74933333 C3.49133333,5.96933333 3.62066667,5.54 3.73066667,5.26 C3.87066667,4.88 4.05,4.62 4.33066667,4.33933333 C4.61,4.06 4.87066667,3.88 5.25,3.74066667 C5.53,3.63 5.95066667,3.5 6.73066667,3.46 C7.58066667,3.43 7.83066667,3.42 9.97,3.42 L10,3.44 L10,3.44 Z M10,5.892 C7.73,5.892 5.892,7.732 5.892,10 C5.892,12.27 7.732,14.108 10,14.108 C12.27,14.108 14.108,12.268 14.108,10 C14.108,7.73 12.268,5.892 10,5.892 Z M10,12.6666667 C8.52666667,12.6666667 7.33333333,11.4733333 7.33333333,10 C7.33333333,8.52666667 8.52666667,7.33333333 10,7.33333333 C11.4733333,7.33333333 12.6666667,8.52666667 12.6666667,10 C12.6666667,11.4733333 11.4733333,12.6666667 10,12.6666667 Z M15.2306667,5.73 C15.2306667,6.26 14.8,6.69 14.2706667,6.69 C13.7406667,6.69 13.3106667,6.25933333 13.3106667,5.73 C13.3106667,5.20066667 13.7413333,4.77066589 14.2706667,4.77066589 C14.7993333,4.77 15.2306667,5.20066667 15.2306667,5.73 Z" id="Shape" fill="#FFFFFF" fill-rule="nonzero"></path>
    </g>
</svg>