<?xml version="1.0" encoding="UTF-8"?>
<svg width="20px" height="20px" viewBox="0 0 20 20" version="1.1" xmlns="http://www.w3.org/2000/svg" xmlns:xlink="http://www.w3.org/1999/xlink">
    <!-- Generator: Sketch 55.2 (78181) - https://sketchapp.com -->
    <title>kickstarter</title>
    <desc>Created with Sketch.</desc>
    <g id="kickstarter" stroke="none" stroke-width="1" fill="none" fill-rule="evenodd">
        <path d="M8.40233333,7.45333333 L11.3356667,3.2 C11.8916667,2.4 12.6063333,2 13.487,2 C14.2016667,2 14.8216667,2.254 15.3463333,2.76266667 C15.8683333,3.27266667 16.1303333,3.87933333 16.1303333,4.588 C16.1303333,5.11066667 15.9923333,5.574 15.7143333,5.974 L13.0696667,9.82 L16.305,13.922 C16.6276667,14.33 16.7896667,14.8086667 16.7896667,15.3553333 C16.7896667,16.0793333 16.5356667,16.7006667 16.0263333,17.2206667 C15.5183333,17.74 14.9023333,18 14.179,18 C13.3863333,18 12.781,17.742 12.365,17.2266667 L8.403,12.282 L8.403,15.008 C8.403,15.7866667 8.26833333,16.3906667 7.99833333,16.8226667 C7.507,17.6073333 6.79633333,18 5.85633333,18 C5.00166667,18 4.339,17.7093333 3.87033333,17.134 C3.43033333,16.6013333 3.21033333,15.8966667 3.21033333,15.0193333 L3.21033333,4.91 C3.21033333,4.08 3.43433333,3.394 3.87966667,2.85466667 C4.345,2.28533333 4.99166667,2 5.817,2 C6.603,2 7.257,2.28533333 7.781,2.85466667 C8.073,3.17133333 8.25766667,3.49 8.335,3.81466667 C8.38166667,4.01466667 8.405,4.38666667 8.405,4.93466667 L8.405,7.45333333 L8.40233333,7.45333333 Z" id="Path" fill="#FFFFFF" fill-rule="nonzero"></path>
    </g>
</svg>