<?xml version="1.0" encoding="UTF-8"?>
<svg width="20px" height="20px" viewBox="0 0 20 20" version="1.1" xmlns="http://www.w3.org/2000/svg" xmlns:xlink="http://www.w3.org/1999/xlink">
    <!-- Generator: Sketch 55.2 (78181) - https://sketchapp.com -->
    <title>link</title>
    <desc>Created with Sketch.</desc>
    <g id="link" stroke="none" stroke-width="1" fill="none" fill-rule="evenodd">
        <g id="ic-link-24px">
            <polygon id="Path" points="0 0 20 0 20 20 0 20"></polygon>
            <path d="M5.22702923,14.7729708 C6.23465639,15.7805979 7.8727871,15.7805979 8.88041426,14.7729708 L11.2374369,12.4159482 L12.3570226,13.5355339 L10,15.8925565 C8.3736544,17.5189021 5.73378909,17.5189021 4.10744349,15.8925565 C2.48109789,14.2662109 2.48109789,11.6263456 4.10744349,10 L6.46446609,7.6429774 L7.58405183,8.76256313 L5.22702923,11.1195857 C4.21940206,12.1272129 4.21940206,13.7653436 5.22702923,14.7729708 Z M8.23223305,12.9462783 L7.05372175,11.767767 L11.767767,7.05372175 L12.9462783,8.23223305 L8.23223305,12.9462783 Z M10,4.10744349 C11.6263456,2.48109789 14.2662109,2.48109789 15.8925565,4.10744349 C17.5189021,5.73378909 17.5189021,8.3736544 15.8925565,10 L13.5355339,12.3570226 L12.4159482,11.2374369 L14.7729708,8.88041426 C15.7805979,7.8727871 15.7805979,6.23465639 14.7729708,5.22702923 C13.7653436,4.21940206 12.1272129,4.21940206 11.1195857,5.22702923 L8.76256313,7.58405183 L7.6429774,6.46446609 L10,4.10744349 Z" id="Shape" fill="#FFFFFF" fill-rule="nonzero"></path>
        </g>
    </g>
</svg>