<?xml version="1.0" encoding="UTF-8"?>
<svg width="20px" height="20px" viewBox="0 0 20 20" version="1.1" xmlns="http://www.w3.org/2000/svg" xmlns:xlink="http://www.w3.org/1999/xlink">
    <!-- Generator: Sketch 58 (84663) - https://sketch.com -->
    <title>performing-arts</title>
    <desc>Created with Sketch.</desc>
    <g id="performing-arts" stroke="none" stroke-width="1" fill="none" fill-rule="evenodd">
        <g id="ic_local_play_24px">
            <polygon id="Path" points="0 0 19.999992 0 19.999992 19.999992 0 19.999992"></polygon>
            <path d="M16.666666,9.999996 C16.666666,9.0833297 17.4166597,8.333332 18.333326,8.333332 L18.333326,4.999998 C18.333326,4.0833317 17.5833263,3.333332 16.666666,3.333332 L3.333332,3.333332 C2.4166657,3.333332 1.67499933,4.0833317 1.67499933,4.999998 L1.67499933,8.333332 C2.59166563,8.333332 3.333332,9.0833297 3.333332,9.999996 C3.333332,10.9166623 2.59166563,11.666662 1.666666,11.666662 L1.666666,14.999994 C1.666666,15.9166603 2.4166657,16.66666 3.333332,16.66666 L16.666666,16.66666 C17.5833263,16.66666 18.333326,15.9166603 18.333326,14.999994 L18.333326,11.666662 C17.4166597,11.666662 16.666666,10.9166623 16.666666,9.999996 Z M12.9833281,13.9999944 L9.999996,12.0833285 L7.01666386,13.9999944 L7.9166635,10.5666624 L5.17499793,8.32499667 L8.70832985,8.11666342 L9.999996,4.8333314 L11.2833288,8.12499675 L14.8166607,8.3333314 L12.0749952,10.5749958 L12.9833281,13.9999944 Z" id="Shape" fill-opacity="0.25" fill="#000000" fill-rule="nonzero"></path>
        </g>
    </g>
</svg>