<?xml version="1.0" encoding="UTF-8"?>
<svg width="20px" height="20px" viewBox="0 0 20 20" version="1.1" xmlns="http://www.w3.org/2000/svg" xmlns:xlink="http://www.w3.org/1999/xlink">
    <!-- Generator: Sketch 58 (84663) - https://sketch.com -->
    <title>photography</title>
    <desc>Created with Sketch.</desc>
    <g id="photography" stroke="none" stroke-width="1" fill="none" fill-rule="evenodd">
        <path d="M11.7189583,8.94770833 C12.7603583,9.98910833 12.7603583,11.6775458 11.7189583,12.7189458 C10.6775583,13.7603458 8.98912083,13.7603458 7.94772083,12.7189458 C6.90632083,11.6775458 6.90632083,9.98910833 7.94772083,8.94770833 C8.98912083,7.90630833 10.6775583,7.90630833 11.7189583,8.94770833" id="Path" fill="#BFBFBF" fill-rule="nonzero"></path>
        <path d="M7.33333333,2.5 L5.80833333,4.16666667 L3.16666667,4.16666667 C2.24583333,4.16666667 1.5,4.9125 1.5,5.83333333 L1.5,15.8333333 C1.5,16.7541667 2.24583333,17.5 3.16666667,17.5 L16.5,17.5 C17.4208333,17.5 18.1666667,16.7541667 18.1666667,15.8333333 L18.1666667,5.83333333 C18.1666667,4.9125 17.4208333,4.16666667 16.5,4.16666667 L13.8583333,4.16666667 L12.3333333,2.5 L7.33333333,2.5 Z M9.83333333,15 C7.53333333,15 5.66666667,13.1333333 5.66666667,10.8333333 C5.66666667,8.53333333 7.53333333,6.66666667 9.83333333,6.66666667 C12.1333333,6.66666667 14,8.53333333 14,10.8333333 C14,13.1333333 12.1333333,15 9.83333333,15 Z" id="Shape" fill="#BFBFBF" fill-rule="nonzero"></path>
    </g>
</svg>