<?xml version="1.0" encoding="UTF-8"?>
<svg width="20px" height="20px" viewBox="0 0 20 20" version="1.1" xmlns="http://www.w3.org/2000/svg" xmlns:xlink="http://www.w3.org/1999/xlink">
    <!-- Generator: Sketch 55.2 (78181) - https://sketchapp.com -->
    <title>soundcloud</title>
    <desc>Created with Sketch.</desc>
    <g id="soundcloud" stroke="none" stroke-width="1" fill="none" fill-rule="evenodd">
        <path d="M2.78333333,10.15 C2.74933333,10.15 2.72066667,10.1806667 2.716,10.2166667 L2.56066667,11.6526667 L2.716,13.056 C2.72066667,13.0946667 2.74933333,13.1213333 2.78333333,13.1213333 C2.81666667,13.1213333 2.84333333,13.0946667 2.84933333,13.056 L3.01933333,11.6526667 L2.83933333,10.2166667 C2.83933333,10.1786667 2.80933333,10.15 2.77933333,10.15 L2.78333333,10.15 Z M2.18,10.702 C2.14,10.702 2.11933333,10.7266667 2.11066667,10.7646667 L2,11.6526667 L2.11,12.5246667 C2.11,12.5613333 2.14,12.5873333 2.17,12.5873333 C2.2,12.5873333 2.22933333,12.5573333 2.23933333,12.518 L2.37933333,11.6386667 L2.23933333,10.7493333 C2.23933333,10.7086667 2.21,10.6893333 2.17933333,10.6893333 L2.18,10.702 Z M3.39933333,9.87 C3.35866667,9.87 3.31933333,9.9 3.31933333,9.93933333 L3.17933333,11.648 L3.32933333,13.2866667 C3.32933333,13.3266667 3.35933333,13.3666667 3.40866667,13.3666667 C3.44933333,13.3666667 3.47866667,13.326 3.48933333,13.2866667 L3.65866667,11.6373333 L3.48933333,9.93866667 C3.47866667,9.89866667 3.44866667,9.85866667 3.40866667,9.85866667 L3.39933333,9.87 Z M4.03866667,9.79933333 C3.98866667,9.79933333 3.94866667,9.83933333 3.93866667,9.88933333 L3.81,11.6493333 L3.95,13.3453333 C3.96066667,13.3966667 4,13.4373333 4.04933333,13.4373333 C4.09933333,13.4373333 4.13933333,13.3966667 4.14933333,13.3373333 L4.30933333,11.6493333 L4.14933333,9.90066667 C4.14933333,9.85066667 4.10933333,9.81066667 4.05933333,9.81066667 L4.03866667,9.79933333 L4.03866667,9.79933333 Z M4.80866667,10.0393333 C4.80533333,9.97933333 4.75866667,9.94 4.70266667,9.94 C4.64266667,9.94 4.59733333,9.98 4.59333333,10.0393333 L4.44866667,11.6593333 L4.582,13.368 C4.582,13.428 4.632,13.4726667 4.688,13.4726667 C4.73733333,13.4726667 4.78666667,13.4273333 4.78666667,13.3673333 L4.938,11.6586667 L4.78666667,10.0293333 L4.80866667,10.0393333 L4.80866667,10.0393333 Z M5.348,8.9 C5.28066667,8.9 5.228,8.96 5.228,9.02066667 L5.088,11.6586667 L5.21266667,13.3673333 C5.21266667,13.4273333 5.266,13.4766667 5.33266667,13.4766667 C5.39533333,13.4766667 5.44866667,13.4166667 5.45266667,13.3566667 L5.592,11.648 L5.45266667,9 C5.44733333,8.93066667 5.394,8.88 5.33266667,8.88 L5.348,8.9 Z M5.972,8.27066667 C5.902,8.27066667 5.842,8.33066667 5.83666667,8.4 L5.71666667,11.648 L5.82666667,13.3466667 C5.82666667,13.4266667 5.88666667,13.486 5.95666667,13.486 C6.026,13.486 6.086,13.4266667 6.09666667,13.3466667 L6.22533333,11.648 L6.09733333,8.41066667 C6.08666667,8.33066667 6.02733333,8.27066667 5.95733333,8.27066667 L5.972,8.27066667 Z M6.61666667,7.97133333 C6.536,7.97133333 6.476,8.03066667 6.46666667,8.11066667 L6.35666667,11.6273333 L6.46666667,13.3073333 C6.476,13.3866667 6.536,13.4573333 6.61666667,13.4573333 C6.696,13.4573333 6.76666667,13.3873333 6.76666667,13.3073333 L6.89666667,11.6273333 L6.766,8.11066667 C6.766,8.03066667 6.696,7.96066667 6.616,7.96066667 L6.61666667,7.97133333 Z M7.446,7.99066667 C7.446,7.90066667 7.376,7.83066667 7.286,7.83066667 C7.20666667,7.83066667 7.126,7.90066667 7.126,7.99066667 L7.02666667,11.618 L7.126,13.2866667 C7.13666667,13.3766667 7.20666667,13.4466667 7.29666667,13.4466667 C7.38666667,13.4466667 7.45666667,13.3766667 7.45666667,13.2866667 L7.566,11.618 L7.45666667,7.98066667 L7.446,7.99066667 Z M7.94533333,7.90133333 C7.85533333,7.90133333 7.77533333,7.98066667 7.77533333,8.07066667 L7.67533333,11.6186667 L7.77533333,13.2673333 C7.77533333,13.3673333 7.85533333,13.4373333 7.94533333,13.4373333 C8.03533333,13.4373333 8.11533333,13.3573333 8.11533333,13.2573333 L8.21533333,11.608 L8.10533333,8.07 C8.10533333,7.97133333 8.02533333,7.89 7.92466667,7.89 L7.94533333,7.90133333 Z M8.59466667,8.00066667 C8.48533333,8.00066667 8.40533333,8.09066667 8.40533333,8.19066667 L8.33666667,11.6193333 L8.42666667,13.2686667 C8.42666667,13.368 8.506,13.4533333 8.616,13.4533333 C8.71533333,13.4533333 8.79666667,13.3733333 8.80533333,13.2633333 L8.886,11.6346667 L8.796,8.22666667 C8.788,8.11733333 8.706,8.03666667 8.606,8.03666667 L8.59466667,8.00066667 Z M9.39533333,7.40666667 C9.36533333,7.38733333 9.32533333,7.37733333 9.28533333,7.37733333 C9.24533333,7.37733333 9.206,7.38733333 9.17533333,7.40666667 C9.11533333,7.44266667 9.076,7.50666667 9.076,7.57666667 L9.076,7.61733333 L9.00666667,11.6493333 L9.08333333,13.282 L9.08333333,13.2873333 C9.08866667,13.3273333 9.10333333,13.3773333 9.13266667,13.4073333 C9.17133333,13.448 9.22733333,13.4766667 9.28866667,13.4766667 C9.342,13.4766667 9.394,13.4473333 9.428,13.4166667 C9.46666667,13.3766667 9.48866667,13.3266667 9.48866667,13.2666667 L9.49866667,13.1066667 L9.57666667,11.638 L9.48666667,7.58066667 C9.48666667,7.51133333 9.446,7.452 9.39666667,7.42133333 L9.39533333,7.40666667 L9.39533333,7.40666667 Z M10.066,7.042 C10.036,7.012 10.006,7.00133333 9.966,7.00133333 C9.91666667,7.00133333 9.86666667,7.012 9.82666667,7.042 C9.77666667,7.08266667 9.74733333,7.142 9.74733333,7.202 L9.74733333,7.22133333 L9.656,11.6273333 L9.70666667,12.4373333 L9.74733333,13.2273333 C9.74733333,13.3366667 9.846,13.4366667 9.966,13.4366667 C10.0866667,13.4366667 10.186,13.3366667 10.186,13.2173333 L10.286,11.608 L10.186,7.18333333 C10.186,7.10333333 10.1366667,7.036 10.076,6.99866667 L10.066,7.042 Z M16.032,9.51666667 C15.762,9.51666667 15.502,9.574 15.2726667,9.67133333 C15.1126667,7.902 13.6326667,6.514 11.814,6.514 C11.3746667,6.514 10.944,6.604 10.5546667,6.75333333 C10.4046667,6.81333333 10.3746667,6.87333333 10.3646667,6.99266667 L10.3646667,13.238 C10.3753333,13.358 10.4646667,13.458 10.5846667,13.468 L16.0413333,13.468 C17.1206667,13.4786667 18,12.6093333 18,11.52 C18,10.4306667 17.1206667,9.552 16.0413333,9.552 L16.032,9.51666667 Z" id="Shape" fill="#FFFFFF" fill-rule="nonzero"></path>
    </g>
</svg>