<?xml version="1.0" encoding="UTF-8"?>
<svg width="20px" height="20px" viewBox="0 0 20 20" version="1.1" xmlns="http://www.w3.org/2000/svg" xmlns:xlink="http://www.w3.org/1999/xlink">
    <!-- Generator: Sketch 55.2 (78181) - https://sketchapp.com -->
    <title>spotify</title>
    <desc>Created with Sketch.</desc>
    <g id="spotify" stroke="none" stroke-width="1" fill="none" fill-rule="evenodd">
        <path d="M10,2 C5.6,2 2,5.6 2,10 C2,14.4 5.6,18 10,18 C14.4,18 18,14.4 18,10 C18,5.6 14.44,2 10,2 Z M13.6806667,13.56 C13.5206667,13.7993333 13.2406667,13.88 13,13.72 C11.12,12.56 8.76,12.3193333 5.95933333,12.9593333 C5.68066667,13.0406667 5.44,12.84 5.36,12.6 C5.28,12.3193333 5.48,12.08 5.72,12 C8.76,11.3193333 11.4,11.6 13.48,12.88 C13.76,13 13.7993333,13.3193333 13.6806667,13.56 L13.6806667,13.56 Z M14.6406667,11.36 C14.44,11.64 14.08,11.76 13.7993333,11.56 C11.64,10.24 8.36,9.84 5.84,10.64 C5.52066667,10.72 5.16,10.56 5.08,10.24 C5,9.92 5.16,9.55933333 5.48,9.47933333 C8.4,8.6 12,9.04066667 14.48,10.56 C14.7206667,10.6806667 14.84,11.08 14.6406667,11.36 L14.6406667,11.36 Z M14.7206667,9.12 C12.16,7.6 7.88,7.44 5.44,8.20066667 C5.04,8.32 4.64,8.08 4.52,7.72 C4.4,7.31933333 4.64,6.92 5,6.79933333 C7.84,5.95933333 12.52,6.11933333 15.4806667,7.88 C15.84,8.08 15.96,8.56 15.76,8.92 C15.5606667,9.20066667 15.08,9.31933333 14.7206667,9.12 L14.7206667,9.12 Z" id="Shape" fill="#FFFFFF" fill-rule="nonzero"></path>
    </g>
</svg>