<?xml version="1.0" encoding="UTF-8"?>
<svg width="20px" height="20px" viewBox="0 0 20 20" version="1.1" xmlns="http://www.w3.org/2000/svg" xmlns:xlink="http://www.w3.org/1999/xlink">
    <!-- Generator: Sketch 55.2 (78181) - https://sketchapp.com -->
    <title>tech</title>
    <desc>Created with Sketch.</desc>
    <g id="tech" stroke="none" stroke-width="1" fill="none" fill-rule="evenodd">
        <g id="ic-local-movies-24px">
            <path d="M13,7 L7,7 L7,13 L13,13 L13,7 Z M11,11 L9,11 L9,9 L11,9 L11,11 Z M19,9 L19,7 L17,7 L17,5 C17,3.9 16.1,3 15,3 L13,3 L13,1 L11,1 L11,3 L9,3 L9,1 L7,1 L7,3 L5,3 C3.9,3 3,3.9 3,5 L3,7 L1,7 L1,9 L3,9 L3,11 L1,11 L1,13 L3,13 L3,15 C3,16.1 3.9,17 5,17 L7,17 L7,19 L9,19 L9,17 L11,17 L11,19 L13,19 L13,17 L15,17 C16.1,17 17,16.1 17,15 L17,13 L19,13 L19,11 L17,11 L17,9 L19,9 Z M15,15 L5,15 L5,5 L15,5 L15,15 Z" id="Shape" fill-opacity="0.25" fill="#000000" fill-rule="nonzero"></path>
            <polygon id="Path" points="0 0 20 0 20 20 0 20"></polygon>
        </g>
    </g>
</svg>