<?xml version="1.0" encoding="UTF-8"?>
<svg width="32px" height="32px" viewBox="0 0 32 32" version="1.1" xmlns="http://www.w3.org/2000/svg" xmlns:xlink="http://www.w3.org/1999/xlink">
    <!-- Generator: Sketch 56.2 (81672) - https://sketch.com -->
    <title>twitter</title>
    <desc>Created with Sketch.</desc>
    <g id="twitter" stroke="none" stroke-width="1" fill="none" fill-rule="evenodd">
        <g transform="translate(0.000000, 3.333333)" fill="#1DA1F2" fill-rule="nonzero" id="Path">
            <path d="M30.66112,3.28832 C29.52832,3.78624 28.31872,4.12544 27.04512,4.28032 C28.34304,3.49824 29.34144,2.2656 29.81376,0.79488 C28.59648,1.50528 27.24736,2.0224 25.8112,2.3104 C24.66432,1.08288 23.02976,0.31488 21.21472,0.31488 C17.73696,0.31488 14.91712,3.13472 14.91712,6.60864 C14.91712,7.10784 14.97472,7.58784 15.07968,8.04736 C9.84448,7.80032 5.20448,5.2864 2.0992,1.48608 C1.55264,2.41024 1.24672,3.48416 1.24672,4.65408 C1.24672,6.84288 2.36032,8.76672 4.04736,9.89696 C3.0144,9.86368 2.04288,9.57952 1.19552,9.10848 L1.19552,9.18656 C1.19552,12.23936 3.36256,14.78528 6.2464,15.36512 C5.71776,15.5072 5.15968,15.584 4.58752,15.584 C4.1856,15.584 3.80032,15.5456 3.41504,15.47392 C4.22272,17.97376 6.54464,19.79648 9.30816,19.84768 C7.15776,21.536 4.43264,22.54208 1.4976,22.54208 C0.9984,22.54208 0.50048,22.51264 0,22.45632 C2.80192,24.24064 6.10304,25.28384 9.67296,25.28384 C21.26208,25.28384 27.59168,15.68896 27.59168,7.38176 C27.59168,7.11424 27.59168,6.84416 27.57248,6.57536 C28.80256,5.69344 29.87648,4.57856 30.72128,3.31392 L30.66112,3.28832 Z"></path>
        </g>
    </g>
</svg>