<?xml version="1.0" encoding="UTF-8"?>
<svg width="20px" height="20px" viewBox="0 0 20 20" version="1.1" xmlns="http://www.w3.org/2000/svg" xmlns:xlink="http://www.w3.org/1999/xlink">
    <!-- Generator: Sketch 55.2 (78181) - https://sketchapp.com -->
    <title>twitter</title>
    <desc>Created with Sketch.</desc>
    <g id="twitter" stroke="none" stroke-width="1" fill="none" fill-rule="evenodd">
        <path d="M17.968668,5.04653973 C17.3786926,5.30586226 16.7487188,5.48252156 16.0854131,5.56318487 C16.7613849,5.15586851 17.2813633,4.51389525 17.527353,3.74792717 C16.8933794,4.11791175 16.1907421,4.38723387 15.4427732,4.53722762 C14.8454648,3.89792092 13.9941669,3.49793759 13.048873,3.49793759 C11.2376151,3.49793759 9.76900962,4.96654306 9.76900962,6.77580101 C9.76900962,7.03579018 9.79900837,7.28577976 9.85367276,7.52510312 C7.1271197,7.39644181 4.71055373,6.08716303 3.09328778,4.10791217 C2.80863297,4.58922545 2.64930628,5.14853548 2.64930628,5.75784342 C2.64930628,6.89779593 3.22928211,7.89975418 4.10791217,8.48839632 C3.56993459,8.47106371 3.06395567,8.32306987 2.62264072,8.07774676 L2.62264072,8.11841173 C2.62264072,9.70834549 3.75126036,11.0342902 5.25319778,11.3362777 C4.97787592,11.4102746 4.68722137,11.4502729 4.38923378,11.4502729 C4.17990917,11.4502729 3.97925086,11.4302737 3.77859256,11.392942 C4.1992417,12.6948877 5.40852464,13.6441815 6.84779801,13.670847 C5.72784467,14.5501437 4.30857048,15.0741219 2.7799675,15.0741219 C2.51997833,15.0741219 2.26065581,15.0587892 2,15.0294571 C3.45927253,15.9587517 5.17853423,16.5020624 7.03779009,16.5020624 C13.0735386,16.5020624 16.3700679,11.5049373 16.3700679,7.1784509 C16.3700679,7.03912337 16.3700679,6.89846256 16.3600683,6.7584684 C17.0007083,6.2991542 17.5600183,5.71851173 18,5.05987251 L17.968668,5.04653973 Z" id="Path" fill="#FFFFFF" fill-rule="nonzero"></path>
    </g>
</svg>