<?xml version="1.0" encoding="UTF-8"?>
<svg width="20px" height="20px" viewBox="0 0 20 20" version="1.1" xmlns="http://www.w3.org/2000/svg" xmlns:xlink="http://www.w3.org/1999/xlink">
    <!-- Generator: Sketch 55.2 (78181) - https://sketchapp.com -->
    <title>vimeo</title>
    <desc>Created with Sketch.</desc>
    <g id="vimeo" stroke="none" stroke-width="1" fill="none" fill-rule="evenodd">
        <path d="M17.9842724,6.277884 C17.9142742,7.83651223 16.8249677,9.9731262 14.7216862,12.683726 C12.5430733,15.5149895 10.704452,16.9302879 9.19515588,16.9302879 C8.25584571,16.9302879 7.4765316,16.0676426 6.82654763,14.3430184 L5.5479125,9.60046872 C5.06859098,7.87784454 4.55593696,7.01519915 4.00661718,7.01519915 C3.88728679,7.01519915 3.4692971,7.26719294 2.7526481,7.76984721 L2,6.79853783 C2.78998052,6.10255499 3.56729468,5.40923876 4.33394244,4.71325593 C5.38658314,3.80127842 6.17723031,3.32329021 6.70321734,3.27395809 C7.94785331,3.15396105 8.71383441,4.00727334 9.00116066,5.83256165 C9.31115302,7.80117977 9.52714769,9.02514958 9.64847803,9.50380444 C10.0078025,11.1370975 10.4024594,11.9530774 10.8324488,11.9530774 C11.1671072,11.9530774 11.6697615,11.4224238 12.3424116,10.3631166 C13.0117284,9.30380937 13.3690529,8.4984959 13.4170517,7.94450956 C13.5130494,7.03053211 13.1537249,6.57054345 12.3410783,6.57054345 C11.9584211,6.57054345 11.5630975,6.65120813 11.1564408,6.83120369 C11.947088,4.25260062 13.4457177,2.99329835 15.6643297,3.07329637 C17.3129557,3.11329539 18.0829367,4.18260235 17.9929389,6.2712175 L17.9842724,6.277884 L17.9842724,6.277884 Z" id="Path" fill="#FFFFFF" fill-rule="nonzero"></path>
    </g>
</svg>