<?xml version="1.0" encoding="UTF-8"?>
<svg width="20px" height="20px" viewBox="0 0 20 20" version="1.1" xmlns="http://www.w3.org/2000/svg" xmlns:xlink="http://www.w3.org/1999/xlink">
    <!-- Generator: Sketch 55.2 (78181) - https://sketchapp.com -->
    <title>art</title>
    <desc>Created with Sketch.</desc>
    <g id="art" stroke="none" stroke-width="1" fill="none" fill-rule="evenodd">
        <g id="ic-local-movies-24px">
            <path d="M10,2.5 C5.85833333,2.5 2.5,5.85833333 2.5,10 C2.5,14.1416667 5.85833333,17.5 10,17.5 C10.6916667,17.5 11.25,16.9416667 11.25,16.25 C11.25,15.925 11.125,15.6333333 10.925,15.4083333 C10.7333333,15.1916667 10.6083333,14.9 10.6083333,14.5833333 C10.6083333,13.8916667 11.1666667,13.3333333 11.8583333,13.3333333 L13.3333333,13.3333333 C15.6333333,13.3333333 17.5,11.4666667 17.5,9.16666667 C17.5,5.48333333 14.1416667,2.5 10,2.5 Z M5.41666667,10 C4.725,10 4.16666667,9.44166667 4.16666667,8.75 C4.16666667,8.05833333 4.725,7.5 5.41666667,7.5 C6.10833333,7.5 6.66666667,8.05833333 6.66666667,8.75 C6.66666667,9.44166667 6.10833333,10 5.41666667,10 Z M7.91666667,6.66666667 C7.225,6.66666667 6.66666667,6.10833333 6.66666667,5.41666667 C6.66666667,4.725 7.225,4.16666667 7.91666667,4.16666667 C8.60833333,4.16666667 9.16666667,4.725 9.16666667,5.41666667 C9.16666667,6.10833333 8.60833333,6.66666667 7.91666667,6.66666667 Z M12.0833333,6.66666667 C11.3916667,6.66666667 10.8333333,6.10833333 10.8333333,5.41666667 C10.8333333,4.725 11.3916667,4.16666667 12.0833333,4.16666667 C12.775,4.16666667 13.3333333,4.725 13.3333333,5.41666667 C13.3333333,6.10833333 12.775,6.66666667 12.0833333,6.66666667 Z M14.5833333,10 C13.8916667,10 13.3333333,9.44166667 13.3333333,8.75 C13.3333333,8.05833333 13.8916667,7.5 14.5833333,7.5 C15.275,7.5 15.8333333,8.05833333 15.8333333,8.75 C15.8333333,9.44166667 15.275,10 14.5833333,10 Z" id="Shape" fill-opacity="0.25" fill="#000000" fill-rule="nonzero"></path>
            <polygon id="Path" points="0 0 20 0 20 20 0 20"></polygon>
        </g>
    </g>
</svg>