<?xml version="1.0" encoding="UTF-8"?>
<svg width="20px" height="20px" viewBox="0 0 20 20" version="1.1" xmlns="http://www.w3.org/2000/svg" xmlns:xlink="http://www.w3.org/1999/xlink">
    <!-- Generator: Sketch 58 (84663) - https://sketch.com -->
    <title>writing-white</title>
    <desc>Created with Sketch.</desc>
    <g id="writing-white" stroke="none" stroke-width="1" fill="none" fill-rule="evenodd">
        <path d="M3.33333333,5 L1.66666667,5 L1.66666667,16.6666667 C1.66666667,17.5833333 2.41666667,18.3333333 3.33333333,18.3333333 L15,18.3333333 L15,16.6666667 L3.33333333,16.6666667 L3.33333333,5 Z M16.6666667,1.66666667 L6.66666667,1.66666667 C5.75,1.66666667 5,2.41666667 5,3.33333333 L5,13.3333333 C5,14.25 5.75,15 6.66666667,15 L16.6666667,15 C17.5833333,15 18.3333333,14.25 18.3333333,13.3333333 L18.3333333,3.33333333 C18.3333333,2.41666667 17.5833333,1.66666667 16.6666667,1.66666667 Z M15.8333333,9.16666667 L7.5,9.16666667 L7.5,7.5 L15.8333333,7.5 L15.8333333,9.16666667 Z M12.5,12.5 L7.5,12.5 L7.5,10.8333333 L12.5,10.8333333 L12.5,12.5 Z M15.8333333,5.83333333 L7.5,5.83333333 L7.5,4.16666667 L15.8333333,4.16666667 L15.8333333,5.83333333 Z" id="Shape" fill="#FFFFFF" fill-rule="nonzero"></path>
    </g>
</svg>