<?xml version="1.0" encoding="UTF-8"?>
<svg width="20px" height="20px" viewBox="0 0 20 20" version="1.1" xmlns="http://www.w3.org/2000/svg" xmlns:xlink="http://www.w3.org/1999/xlink">
    <!-- Generator: Sketch 55.2 (78181) - https://sketchapp.com -->
    <title>youtube</title>
    <desc>Created with Sketch.</desc>
    <g id="youtube" stroke="none" stroke-width="1" fill="none" fill-rule="evenodd">
        <path d="M17.6659676,6.13560637 C17.4773598,5.45979884 16.9492696,4.93170861 16.273462,4.74310078 C15.0263426,4.40897001 10.0071869,4.40897001 10.0071869,4.40897001 C10.0071869,4.40897001 5.0007025,4.40231038 3.74091177,4.74310078 C3.06510424,4.93170861 2.53701401,5.45979884 2.34840618,6.13560637 C2.11200075,7.41241032 1.99545173,8.70851572 2.00013574,10.007012 C1.99636445,11.3006085 2.11290965,12.5917595 2.34840618,13.8637456 C2.53701401,14.5395531 3.06510424,15.0676434 3.74091177,15.2562512 C4.98669742,15.5910394 10.0071869,15.5910394 10.0071869,15.5910394 C10.0071869,15.5910394 15.0130044,15.5910394 16.273462,15.2562512 C16.9492696,15.0676434 17.4773598,14.5395531 17.6659676,13.8637456 C17.8965442,12.5912988 18.0081772,11.3001515 17.999422,10.007012 C18.0090898,8.70897442 17.8974531,7.41287276 17.6659676,6.13560637 L17.6659676,6.13560637 Z M8.40527195,12.4018815 L8.40527195,7.60480647 L12.5827887,10.007012 L8.40527195,12.4018815 Z" id="Shape" fill="#FFFFFF" fill-rule="nonzero"></path>
    </g>
</svg>