<svg width="20" height="20" xmlns="http://www.w3.org/2000/svg"><g fill="none" fill-rule="evenodd"><path d="M10 2.5a7.5 7.5 0 0 0 0 15 1.248 1.248 0 0 0 .925-2.092 1.252 1.252 0 0 1-.317-.825c0-.691.559-1.25 1.25-1.25h1.475c2.3 0 4.167-1.866 4.167-4.166C17.5 5.483 14.142 2.5 10 2.5zM5.417 10c-.692 0-1.25-.558-1.25-1.25s.558-1.25 1.25-1.25c.691 0 1.25.558 1.25 1.25S6.108 10 5.417 10zm2.5-3.333c-.692 0-1.25-.559-1.25-1.25 0-.692.558-1.25 1.25-1.25a1.25 1.25 0 1 1 0 2.5zm4.166 0a1.25 1.25 0 1 1 0-2.5c.692 0 1.25.558 1.25 1.25 0 .691-.558 1.25-1.25 1.25zm2.5 3.333c-.691 0-1.25-.558-1.25-1.25s.559-1.25 1.25-1.25c.692 0 1.25.558 1.25 1.25S15.275 10 14.583 10z" fill-opacity=".25" fill="#000" fill-rule="nonzero"/><path d="M0 0h20v20H0z"/></g></svg>