<svg width="20" height="20" xmlns="http://www.w3.org/2000/svg"><g fill="none" fill-rule="evenodd" opacity=".25"><path d="M0 0h20v20H0V0zm8.333 4.167h3.334v1.666H8.333V4.167zm0 0h3.334v1.666H8.333V4.167z"/><path d="M8.333 13.333V12.5H2.508L2.5 15.833A1.66 1.66 0 0 0 4.167 17.5h11.666a1.66 1.66 0 0 0 1.667-1.667V12.5h-5.833v.833H8.333zm8.334-7.5h-3.342V4.167L11.658 2.5H8.325L6.658 4.167v1.666H3.333c-.916 0-1.666.75-1.666 1.667V10a1.66 1.66 0 0 0 1.666 1.667h5V10h3.334v1.667h5c.916 0 1.666-.75 1.666-1.667V7.5c0-.917-.75-1.667-1.666-1.667zm-5 0H8.333V4.167h3.334v1.666z" fill="#000" fill-rule="nonzero"/></g></svg>