<svg width="20" height="20" xmlns="http://www.w3.org/2000/svg"><g fill="none" fill-rule="evenodd"><path d="M13.167 9.167a2.49 2.49 0 0 0 2.491-2.5 2.497 2.497 0 0 0-4.992 0c0 1.383 1.117 2.5 2.5 2.5zm-6.667 0a2.49 2.49 0 0 0 2.492-2.5 2.497 2.497 0 0 0-4.992 0c0 1.383 1.117 2.5 2.5 2.5zm0 1.666c-1.942 0-5.833.975-5.833 2.917v2.083h11.666V13.75c0-1.942-3.891-2.917-5.833-2.917zm6.667 0a9.76 9.76 0 0 0-.809.042c.967.7 1.642 1.642 1.642 2.875v2.083h5V13.75c0-1.942-3.892-2.917-5.833-2.917z" fill-opacity=".25" fill="#000" fill-rule="nonzero"/><path d="M0 0h20v20H0z"/></g></svg>