<svg width="20" height="20" xmlns="http://www.w3.org/2000/svg"><g fill="none" fill-rule="evenodd"><path d="M0 0h20v20H0z"/><path d="M10 1.667A8.336 8.336 0 0 0 1.667 10c0 4.6 3.733 8.333 8.333 8.333S18.333 14.6 18.333 10 14.6 1.667 10 1.667zm-.833 14.941A6.664 6.664 0 0 1 3.333 10c0-3.4 2.542-6.2 5.834-6.608v13.216zm1.666-13.216a6.673 6.673 0 0 1 2.392.775h-2.392v-.775zm0 2.441H15.2c.208.259.4.542.567.834h-4.934v-.834zm0 2.5h5.617c.067.275.125.55.158.834h-5.775v-.834zm0 8.275v-.775h2.392c-.725.4-1.533.667-2.392.775zm4.367-2.441h-4.367v-.834h4.934a6.373 6.373 0 0 1-.567.834zm1.25-2.5h-5.617v-.834h5.775a6.998 6.998 0 0 1-.158.834z" fill-opacity=".25" fill="#000" fill-rule="nonzero"/></g></svg>