<svg width="20" height="20" xmlns="http://www.w3.org/2000/svg"><path d="M8.402 7.453L11.336 3.2c.556-.8 1.27-1.2 2.151-1.2.715 0 1.335.254 1.86.763.521.51.783 1.116.783 1.825 0 .523-.138.986-.416 1.386L13.07 9.82l3.235 4.102c.323.408.485.887.485 1.433a2.57 2.57 0 0 1-.764 1.866 2.49 2.49 0 0 1-1.847.779c-.793 0-1.398-.258-1.814-.773l-3.962-4.945v2.726c0 .779-.135 1.383-.405 1.815C7.507 17.607 6.796 18 5.856 18c-.854 0-1.517-.29-1.986-.866-.44-.533-.66-1.237-.66-2.115V4.91c0-.83.224-1.516.67-2.055C4.345 2.285 4.992 2 5.817 2c.786 0 1.44.285 1.964.855.292.316.477.635.554.96.047.2.07.572.07 1.12v2.518h-.003z" fill="#FFF"/></svg>