<svg width="20" height="20" xmlns="http://www.w3.org/2000/svg"><g fill="none" fill-rule="evenodd"><path d="M0 0h20v20H0z"/><path d="M5.227 14.773a2.586 2.586 0 0 0 3.653 0l2.357-2.357 1.12 1.12L10 15.893a4.168 4.168 0 0 1-5.893 0 4.168 4.168 0 0 1 0-5.893l2.357-2.357 1.12 1.12-2.357 2.357a2.586 2.586 0 0 0 0 3.653zm3.005-1.827l-1.178-1.178 4.714-4.714 1.178 1.178-4.714 4.714zM10 4.107a4.168 4.168 0 0 1 5.893 0 4.168 4.168 0 0 1 0 5.893l-2.357 2.357-1.12-1.12 2.357-2.357a2.586 2.586 0 0 0 0-3.653 2.586 2.586 0 0 0-3.653 0L8.763 7.584l-1.12-1.12L10 4.107z" fill="#FFF" fill-rule="nonzero"/></g></svg>