<svg width="20" height="20" xmlns="http://www.w3.org/2000/svg"><g fill="none" fill-rule="evenodd"><path d="M0 0h20v20H0z"/><path d="M16.667 10c0-.917.75-1.667 1.666-1.667V5c0-.917-.75-1.667-1.666-1.667H3.333c-.916 0-1.658.75-1.658 1.667v3.333c.917 0 1.658.75 1.658 1.667s-.741 1.667-1.666 1.667V15c0 .917.75 1.667 1.666 1.667h13.334c.916 0 1.666-.75 1.666-1.667v-3.333c-.916 0-1.666-.75-1.666-1.667zm-3.684 4L10 12.083 7.017 14l.9-3.433-2.742-2.242 3.533-.208L10 4.833l1.283 3.292 3.534.208-2.742 2.242.908 3.425z" fill-opacity=".25" fill="#000" fill-rule="nonzero"/></g></svg>