<svg width="20" height="20" xmlns="http://www.w3.org/2000/svg"><path d="M2.783 10.15c-.034 0-.062.03-.067.067l-.155 1.436.155 1.403c.005.039.033.065.067.065s.06-.026.066-.065l.17-1.403-.18-1.436c0-.038-.03-.067-.06-.067h.004zm-.603.552c-.04 0-.06.025-.07.063l-.11.888.11.872c0 .036.03.062.06.062s.06-.03.07-.069l.14-.88-.14-.889c0-.04-.03-.06-.06-.06v.013zM3.4 9.87c-.041 0-.08.03-.08.07l-.14 1.708.15 1.639c0 .04.03.08.079.08.04 0 .07-.041.08-.08l.17-1.65-.17-1.698c-.01-.04-.04-.08-.08-.08l-.01.011zm.639-.07c-.05 0-.09.04-.1.09l-.129 1.76.14 1.695c.01.052.05.092.1.092s.09-.04.1-.1l.16-1.688-.16-1.748a.09.09 0 0 0-.09-.09l-.021-.012zm.77.24a.103.103 0 0 0-.106-.1c-.06 0-.106.04-.11.1l-.144 1.62.133 1.708c0 .06.05.105.106.105.05 0 .099-.046.099-.106l.151-1.708-.151-1.63.022.01zm.539-1.14c-.067 0-.12.06-.12.12l-.14 2.639.125 1.708c0 .06.053.11.12.11.062 0 .116-.06.12-.12l.139-1.709L5.452 9c-.005-.07-.058-.12-.12-.12l.016.02zm.624-.63a.14.14 0 0 0-.135.13l-.12 3.248.11 1.699c0 .08.06.139.13.139.069 0 .129-.06.14-.14l.128-1.698-.128-3.237c-.01-.08-.07-.14-.14-.14h.015zm.645-.299c-.081 0-.141.06-.15.14l-.11 3.516.11 1.68c.009.08.069.15.15.15.079 0 .15-.07.15-.15l.13-1.68-.131-3.516c0-.08-.07-.15-.15-.15v.01zm.829.02c0-.09-.07-.16-.16-.16-.08 0-.16.07-.16.16l-.1 3.627.1 1.669c.01.09.08.16.17.16.09 0 .16-.07.16-.16l.11-1.669-.11-3.637-.01.01zm.5-.09c-.09 0-.17.08-.17.17l-.1 3.548.1 1.648c0 .1.08.17.17.17.09 0 .17-.08.17-.18l.1-1.649-.11-3.538a.18.18 0 0 0-.181-.18l.02.011zm.649.1a.19.19 0 0 0-.19.19l-.068 3.428.09 1.65c0 .099.079.184.189.184.1 0 .18-.08.19-.19l.08-1.628-.09-3.408c-.008-.11-.09-.19-.19-.19L8.595 8zm.8-.594a.207.207 0 0 0-.11-.03c-.04 0-.079.01-.11.03a.2.2 0 0 0-.099.17v.04l-.07 4.032.077 1.633v.005c.006.04.02.09.05.12.038.041.094.07.156.07a.22.22 0 0 0 .139-.06.21.21 0 0 0 .06-.15l.01-.16.079-1.469-.09-4.057a.193.193 0 0 0-.09-.16l-.002-.014zm.671-.365a.129.129 0 0 0-.1-.04c-.05 0-.1.01-.14.04a.21.21 0 0 0-.079.16v.02l-.091 4.405.05.81.041.79a.22.22 0 0 0 .439-.01l.1-1.609-.1-4.425c0-.08-.05-.147-.11-.184l-.01.043zm5.966 2.475c-.27 0-.53.057-.76.154a3.47 3.47 0 0 0-4.717-2.918c-.15.06-.18.12-.19.24v6.245c.01.12.1.22.22.23h5.456A1.94 1.94 0 0 0 18 11.52c0-1.09-.88-1.968-1.959-1.968l-.009-.035z" fill="#FFF"/></svg>