<svg width="20" height="20" xmlns="http://www.w3.org/2000/svg"><path d="M10 2c-4.4 0-8 3.6-8 8s3.6 8 8 8 8-3.6 8-8-3.56-8-8-8zm3.68 11.56c-.16.24-.44.32-.68.16-1.88-1.16-4.24-1.4-7.04-.76-.28.08-.52-.12-.6-.36-.08-.28.12-.52.36-.6 3.04-.68 5.68-.4 7.76.88.28.12.32.44.2.68zm.96-2.2c-.2.28-.56.4-.84.2-2.16-1.32-5.44-1.72-7.96-.92-.32.08-.68-.08-.76-.4-.08-.32.08-.68.4-.76 2.92-.88 6.52-.44 9 1.08.24.12.36.52.16.8zm.08-2.24C12.16 7.6 7.88 7.44 5.44 8.2a.75.75 0 0 1-.92-.48c-.12-.4.12-.8.48-.92 2.84-.84 7.52-.68 10.48 1.08.36.2.48.68.28 1.04-.2.28-.68.4-1.04.2z" fill="#FFF"/></svg>