<svg width="32" height="32" xmlns="http://www.w3.org/2000/svg"><path d="M30.661 6.622a12.8 12.8 0 0 1-3.616.992 6.346 6.346 0 0 0 2.769-3.486 13.009 13.009 0 0 1-4.003 1.516 6.297 6.297 0 0 0-10.894 4.298c0 .5.058.98.163 1.439C9.844 11.134 5.204 8.62 2.1 4.819a6.172 6.172 0 0 0-.853 3.168 6.299 6.299 0 0 0 2.8 5.243 6.278 6.278 0 0 1-2.851-.788v.078a6.301 6.301 0 0 0 5.05 6.178 6.395 6.395 0 0 1-2.831.11 6.319 6.319 0 0 0 5.893 4.373 12.631 12.631 0 0 1-7.81 2.694c-.5 0-.998-.029-1.498-.085a17.914 17.914 0 0 0 9.673 2.827c11.59 0 17.919-9.595 17.919-17.902 0-.267 0-.538-.02-.806a12.718 12.718 0 0 0 3.15-3.262l-.06-.025z" fill="#1DA1F2"/></svg>