<svg width="20" height="20" xmlns="http://www.w3.org/2000/svg"><path d="M17.969 5.047c-.59.259-1.22.436-1.884.516a3.305 3.305 0 0 0 1.442-1.815c-.634.37-1.336.64-2.084.79a3.28 3.28 0 0 0-5.59 2.988 9.29 9.29 0 0 1-6.76-3.418 3.214 3.214 0 0 0-.444 1.65c0 1.14.58 2.142 1.459 2.73a3.27 3.27 0 0 1-1.485-.41v.04a3.282 3.282 0 0 0 2.63 3.218 3.33 3.33 0 0 1-1.474.057 3.291 3.291 0 0 0 3.069 2.278 6.578 6.578 0 0 1-4.068 1.403 6.8 6.8 0 0 1-.78-.045 9.33 9.33 0 0 0 5.038 1.473c6.036 0 9.332-4.997 9.332-9.324 0-.139 0-.28-.01-.42C17 6.3 17.56 5.718 18 5.06l-.031-.013z" fill="#FFF"/></svg>