<svg width="20" height="20" xmlns="http://www.w3.org/2000/svg"><path d="M17.984 6.278c-.07 1.559-1.159 3.695-3.262 6.406-2.179 2.831-4.018 4.246-5.527 4.246-.94 0-1.718-.862-2.368-2.587L5.547 9.6c-.478-1.722-.991-2.585-1.54-2.585-.12 0-.538.252-1.254.755L2 6.799c.79-.696 1.567-1.39 2.334-2.086 1.053-.912 1.843-1.39 2.37-1.439 1.244-.12 2.01.733 2.297 2.559.31 1.968.526 3.192.647 3.67.36 1.634.754 2.45 1.184 2.45.335 0 .838-.53 1.51-1.59.67-1.06 1.027-1.865 1.075-2.418.096-.914-.263-1.374-1.076-1.374-.383 0-.778.08-1.185.26.791-2.578 2.29-3.838 4.508-3.758 1.649.04 2.419 1.11 2.329 3.198l-.009.007z" fill="#FFF"/></svg>